# xmcd
#
# Track frame offsets:
#	150
#	23292
#	46375
#	68311
#	81928
#	103528
#	124849
#	148878
#	173114
#	191507
#	210191
#	225451
#	243259
#	262711
#	285089
#	301983
#	321657
#	338573
#
# Disc length: 4769 seconds
#
# Revision: 1
# Processed by: cddbd v1.5.2PL0 Copyright (c) Steve Scherf et al.
# Submitted via: audiograbber 1.83.01
#
DISCID=e2129f12
DTITLE=Сборник - Шансон vol.1 Душевная песня
DYEAR=2006
DGENRE=Shanson
TTITLE0=Кабриолет - Цепи
TTITLE1=И Аллегрова - Мама
TTITLE2=А Малинин - Берега
TTITLE3=Трофим - Снегири
TTITLE4=Г Лепс - Натали
TTITLE5=Самоцветы - Прошлогодние глаза
TTITLE6=О Алябин - Самая красивая
TTITLE7=Г Тимофеев - Осенняя женщина
TTITLE8=Е Амирамов - Молодая
TTITLE9=М Шелег - За глаза твои карие
TTITLE10=Петлюра - Скорый поезд
TTITLE11=Л Успенская - Кабриолет
TTITLE12=И Слуцкий - Калина красная
TTITLE13=М Шуфутинский - Душа болит
TTITLE14=В Бажиновский - Ночь
TTITLE15=А Добронравов - Одинокая волчица
TTITLE16=М Круг В Цыганова - Приходите в мой дом
TTITLE17=И Корнелюк - Город, которого нет
EXTD=
EXTT0=
EXTT1=
EXTT2=
EXTT3=
EXTT4=
EXTT5=
EXTT6=
EXTT7=
EXTT8=
EXTT9=
EXTT10=
EXTT11=
EXTT12=
EXTT13=
EXTT14=
EXTT15=
EXTT16=
EXTT17=
PLAYORDER=
